<?xml version="1.0" standalone="no"?>
<!DOCTYPE svg PUBLIC "-//W3C//DTD SVG 20010904//EN"
 "http://www.w3.org/TR/2001/REC-SVG-20010904/DTD/svg10.dtd">
<svg version="1.0" xmlns="http://www.w3.org/2000/svg"
 width="700.000000pt" height="700.000000pt" viewBox="0 0 700.000000 700.000000"
 preserveAspectRatio="xMidYMid meet">
<metadata>
Created by potrace 1.14, written by Peter Selinger 2001-2017
</metadata>
<g transform="translate(0.000000,700.000000) scale(0.100000,-0.100000)"
fill="#000000" stroke="none">
<path d="M1270 6989 c-277 -45 -508 -143 -720 -307 -82 -64 -224 -217 -288
-310 -130 -190 -218 -413 -249 -632 -4 -30 -8 -1045 -8 -2255 l0 -2200 23
-109 c46 -215 150 -448 262 -590 201 -255 426 -415 715 -511 55 -19 116 -36
135 -40 187 -33 161 -33 2355 -33 2193 -1 2182 -1 2365 33 68 12 242 75 331
120 276 138 503 362 642 632 42 81 91 198 103 243 31 122 45 188 54 264 12
108 9 4411 -4 4466 -50 221 -74 297 -138 425 -34 69 -112 200 -128 215 -3 3
-18 23 -34 45 -75 102 -273 275 -407 355 -129 77 -328 149 -494 179 -108 20
-152 20 -2285 19 -1199 0 -2200 -4 -2230 -9z"/>
</g>
</svg>
